# xmcd
#
# Track frame offsets:
#	150
#	14556
#	25053
#	38025
#	49215
#	61747
#	72969
#	84403
#	97443
#	105561
#	116917
#	127522
#	147449
#	160837
#	174097
#
# Disc length: 2438 seconds
# Revision: 0
# Processed by: cddbd v1.5.2PL0 Copyright (c) Steve Scherf et al.
# Submitted via: dBpowerAMP V12.0
#
DISCID=c309840f
DTITLE=Rob McCoury - The 5 String Flame Thrower
DYEAR=2014
DGENRE=Country*
TTITLE0=Kansas City Railroad Blues
TTITLE1=Blackjack
TTITLE2=I've Lost You
TTITLE3=Banjo Riff
TTITLE4=Sugar Creek
TTITLE5=Lime House Blues
TTITLE6=Northwest Passage
TTITLE7=Jericho
TTITLE8=Charlotte Breakdown
TTITLE9=Caracas
TTITLE10=Foggy Mountain Chimes
TTITLE11=Siempre
TTITLE12=John Henry
TTITLE13=We Could
TTITLE14=Feudin' Banjos
EXTD=
EXTT0=
EXTT1=
EXTT2=
EXTT3=
EXTT4=
EXTT5=
EXTT6=
EXTT7=
EXTT8=
EXTT9=
EXTT10=
EXTT11=
EXTT12=
EXTT13=
EXTT14=
PLAYORDER=
